<svg xmlns="http://www.w3.org/2000/svg" viewBox="0 0 100 38" style="fill: currentColor;" class=""><path d="M80.078 38a9.053 9.053 0 01-3.4-.619 7.913 7.913 0 01-1.465-.777 8.558 8.558 0 01-1.3-1.084 8.316 8.316 0 01-1.838-2.783 9.626 9.626 0 010-6.762 8.316 8.316 0 011.838-2.783 8.558 8.558 0 011.3-1.084 7.8 7.8 0 011.465-.777 9.053 9.053 0 013.4-.619 8.77 8.77 0 012.143.258 8.411 8.411 0 011.98.775 8.215 8.215 0 011.691 1.219 7.7 7.7 0 011.291 1.6l-3.27 1.9a3.749 3.749 0 00-1.561-1.508 4.838 4.838 0 00-2.275-.533 4.7 4.7 0 00-3.516 1.352 5.542 5.542 0 000 7.172 4.683 4.683 0 003.516 1.355 4.824 4.824 0 002.287-.547 3.708 3.708 0 001.549-1.5l3.27 1.9a7.54 7.54 0 01-1.273 1.594 7.972 7.972 0 01-1.687 1.221 8.469 8.469 0 01-1.98.777 9.044 9.044 0 01-2.165.253zm-29.035 0a8 8 0 01-1.836-.2 5.818 5.818 0 01-1.547-.607 5.278 5.278 0 01-1.258-1.008 6.382 6.382 0 01-.975-1.414l3.293-1.9a3.074 3.074 0 00.936 1.094 2.579 2.579 0 001.41.332 2.339 2.339 0 001.615-.492 1.913 1.913 0 00.539-1.479V21.043h3.789v11.283a6.346 6.346 0 01-.418 2.371 4.809 4.809 0 01-1.25 1.8 5.61 5.61 0 01-1.91 1.131 7.218 7.218 0 01-2.388.372zm-14 0a8.76 8.76 0 01-3.326-.623 8.551 8.551 0 01-2.783-1.869 8.4 8.4 0 01-1.881-2.787 9.3 9.3 0 010-6.732 8.387 8.387 0 011.881-2.783 8.5 8.5 0 012.783-1.871 9.2 9.2 0 016.654 0 8.466 8.466 0 012.783 1.871 8.363 8.363 0 011.883 2.783 9.323 9.323 0 010 6.732 8.378 8.378 0 01-1.883 2.787 8.5 8.5 0 01-2.783 1.869 8.748 8.748 0 01-3.328.623zm0-13.584a4.716 4.716 0 00-3.443 1.375 5.269 5.269 0 000 7.125 4.994 4.994 0 006.891 0 5.269 5.269 0 000-7.125 4.719 4.719 0 00-3.448-1.375zm58.785 13.25h-.037l-3.752-3.746v-9.221h-4.264v-3.658h8.563L100 24.699h-4.172zm-25.674 0h-10.42V21.041h10.3v3.658H63.52v2.756h5.922v3.611H63.52v2.945h6.631v3.656zm-42.559 0h-4.074l-3.129-5.461h-1.8v5.389l-3.789-3.785v-12.77h6.631a5.744 5.744 0 012.189.416 5.886 5.886 0 013.08 3.09 5.737 5.737 0 01.416 2.2 5.138 5.138 0 01-.211 1.465 5.326 5.326 0 01-.631 1.35 5.776 5.776 0 01-2.217 2.008l3.531 6.1zm-9-13.061v4.275h2.842a1.746 1.746 0 001.338-.617 2.355 2.355 0 000-3.041 1.746 1.746 0 00-1.338-.617zM4.62 37.63L.829 33.845v-12.8h6.275a6.024 6.024 0 012.252.416 5.658 5.658 0 011.871 9.322 5.634 5.634 0 01-1.871 1.248 5.985 5.985 0 01-2.252.414H4.62v5.189zm0-13.025v4.275h2.484a1.885 1.885 0 001.447-.617 2.318 2.318 0 000-3.041 1.885 1.885 0 00-1.447-.617zm2.035-7.314a9.348 9.348 0 01-2.332-.275 6.565 6.565 0 01-1.912-.828 6.141 6.141 0 01-1.453-1.3 6.22 6.22 0 01-.959-1.7l3.279-1.9a3.546 3.546 0 003.5 2.3 3.38 3.38 0 001.693-.338 1.116 1.116 0 00.564-1.016 1.283 1.283 0 00-.725-1.152 13.267 13.267 0 00-2.723-.963 12 12 0 01-1.83-.641 7.539 7.539 0 01-1.533-.937A3.8 3.8 0 011.081 7.08 4.951 4.951 0 01.69 5.062a5.017 5.017 0 01.412-2.074A4.513 4.513 0 012.34 1.379 5.8 5.8 0 014.151.348 6.356 6.356 0 016.276.002a7.474 7.474 0 011.926.242 6.3 6.3 0 011.686.719 6.2 6.2 0 011.4 1.182 7.273 7.273 0 011.07 1.611L9.149 5.631a3.73 3.73 0 00-1.117-1.436 2.921 2.921 0 00-1.76-.488 2.083 2.083 0 00-1.32.369 1.106 1.106 0 00-.463.891 1.329 1.329 0 00.582 1.068 8.447 8.447 0 002.412 1c.658.2 1.178.373 1.547.5a11.129 11.129 0 011.391.629 4.553 4.553 0 011.283.926 4.774 4.774 0 01.787 1.283 4.588 4.588 0 01.344 1.818 5.072 5.072 0 01-.428 2.121 4.446 4.446 0 01-1.285 1.619 5.888 5.888 0 01-1.973 1.023 8.571 8.571 0 01-2.493.337zm58.006-.332h-4.162l-.83-2.613h-6.182l-.832 2.613h-4.158L54.151.334h4.854l5.654 16.625zM56.577 4.68l-1.949 6.1h3.9zM27.456 16.959h-3.8v-6.6h-5.229v6.6h-3.8V.334h3.8v6.363h5.229V.334h3.8v16.625zm6.656 0h-3.8V.334h3.8zm13.668 0H36.37v-2.945l6.371-10.021h-6.252V.335h11.174v2.943L41.29 13.301h6.49v3.658z"></path></svg>